<svg width="112" height="19" fill="none" xmlns="http://www.w3.org/2000/svg"><path d="M11.156 15.072V18H.824V.588h3.6v14.484h6.732zm18.492-5.784c0 1.272-.216 2.452-.648 3.54a8.177 8.177 0 01-1.812 2.82c-.776.792-1.712 1.416-2.808 1.872-1.096.448-2.312.672-3.648.672-1.336 0-2.552-.224-3.648-.672a8.522 8.522 0 01-2.82-1.872 8.324 8.324 0 01-1.824-2.82c-.424-1.088-.636-2.268-.636-3.54 0-1.272.212-2.448.636-3.528a8.324 8.324 0 011.824-2.82 8.373 8.373 0 012.82-1.86C18.18.624 19.396.396 20.732.396c1.336 0 2.552.228 3.648.684a8.157 8.157 0 012.808 1.872A8.177 8.177 0 0129 5.772c.432 1.08.648 2.252.648 3.516zm-3.684 0c0-.912-.12-1.728-.36-2.448-.24-.728-.588-1.344-1.044-1.848a4.313 4.313 0 00-1.644-1.164c-.64-.272-1.368-.408-2.184-.408-.816 0-1.548.136-2.196.408-.648.264-1.2.652-1.656 1.164-.448.504-.792 1.12-1.032 1.848-.24.72-.36 1.536-.36 2.448 0 .92.12 1.744.36 2.472.24.72.584 1.332 1.032 1.836a4.605 4.605 0 001.656 1.164c.648.264 1.38.396 2.196.396.816 0 1.544-.132 2.184-.396a4.492 4.492 0 001.644-1.164c.456-.504.804-1.116 1.044-1.836.24-.728.36-1.552.36-2.472zm14.785-.156h5.976v7.188a9.411 9.411 0 01-2.844 1.428c-1 .296-2.06.444-3.18.444-1.432 0-2.728-.22-3.888-.66-1.16-.448-2.152-1.068-2.976-1.86a8.185 8.185 0 01-1.908-2.82c-.448-1.088-.672-2.276-.672-3.564 0-1.304.212-2.5.636-3.588a8.109 8.109 0 011.836-2.808c.792-.784 1.748-1.396 2.868-1.836 1.128-.44 2.388-.66 3.78-.66.72 0 1.392.06 2.016.18.624.112 1.2.272 1.728.48.528.2 1.012.44 1.452.72.44.28.84.588 1.2.924L45.73 4.308c-.16.256-.368.412-.624.468-.256.056-.536-.008-.84-.192a10.095 10.095 0 00-.852-.468 5.764 5.764 0 00-.876-.372 6.151 6.151 0 00-1.02-.24 8.54 8.54 0 00-1.272-.084c-.808 0-1.54.14-2.196.42a4.756 4.756 0 00-1.68 1.188 5.37 5.37 0 00-1.056 1.848c-.248.72-.372 1.524-.372 2.412 0 .96.136 1.82.408 2.58.272.752.656 1.388 1.152 1.908.496.52 1.088.916 1.776 1.188.696.272 1.468.408 2.316.408.576 0 1.088-.056 1.536-.168.456-.12.9-.28 1.332-.48v-2.928h-1.968c-.232 0-.416-.06-.552-.18a.651.651 0 01-.192-.48V9.132zm25.743.156c0 1.272-.216 2.452-.648 3.54a8.177 8.177 0 01-1.812 2.82c-.776.792-1.712 1.416-2.808 1.872-1.096.448-2.312.672-3.648.672-1.336 0-2.552-.224-3.648-.672a8.522 8.522 0 01-2.82-1.872 8.324 8.324 0 01-1.824-2.82c-.424-1.088-.636-2.268-.636-3.54 0-1.272.212-2.448.636-3.528a8.324 8.324 0 011.824-2.82 8.373 8.373 0 012.82-1.86C55.024.624 56.24.396 57.576.396c1.336 0 2.552.228 3.648.684a8.157 8.157 0 012.808 1.872 8.177 8.177 0 011.812 2.82c.432 1.08.648 2.252.648 3.516zm-3.684 0c0-.912-.12-1.728-.36-2.448-.24-.728-.588-1.344-1.044-1.848a4.313 4.313 0 00-1.644-1.164c-.64-.272-1.368-.408-2.184-.408-.816 0-1.548.136-2.196.408-.648.264-1.2.652-1.656 1.164-.448.504-.792 1.12-1.032 1.848-.24.72-.36 1.536-.36 2.448 0 .92.12 1.744.36 2.472.24.72.584 1.332 1.032 1.836a4.605 4.605 0 001.656 1.164c.648.264 1.38.396 2.196.396.816 0 1.544-.132 2.184-.396a4.492 4.492 0 001.644-1.164c.456-.504.804-1.116 1.044-1.836.24-.728.36-1.552.36-2.472zm18.121-5.796h-5.088V18H72.23V3.492h-5.088V.588H80.93v2.904zm10.033 7.812V18h-3.6v-6.696L81.038.588h3.168c.312 0 .56.076.744.228.192.144.344.332.456.564l2.856 5.484c.192.368.364.712.516 1.032.16.32.3.64.42.96.112-.32.24-.64.384-.96.152-.328.32-.672.504-1.032l2.832-5.484c.096-.192.24-.372.432-.54.192-.168.44-.252.744-.252h3.192l-6.324 10.716zm13.805-2.052c1.128 0 1.952-.272 2.472-.816.528-.544.792-1.288.792-2.232a3.24 3.24 0 00-.204-1.176 2.218 2.218 0 00-.6-.912 2.605 2.605 0 00-1.008-.588c-.408-.136-.892-.204-1.452-.204h-2.28v5.928h2.28zm0-8.664c1.192 0 2.22.14 3.084.42.872.28 1.588.672 2.148 1.176.56.496.972 1.088 1.236 1.776a6.05 6.05 0 01.408 2.244c0 .856-.14 1.64-.42 2.352a4.808 4.808 0 01-1.272 1.836c-.568.512-1.284.912-2.148 1.2-.864.28-1.876.42-3.036.42h-2.28V18h-3.6V.588h5.88z" fill="#F16844"/></svg>