<svg width="167" height="28" fill="none" xmlns="http://www.w3.org/2000/svg"><path d="M16.234 22.608V27H.736V.882h5.4v21.726h10.098zm27.738-8.676c0 1.908-.324 3.678-.972 5.31-.636 1.632-1.542 3.042-2.718 4.23-1.164 1.188-2.568 2.124-4.212 2.808-1.644.672-3.468 1.008-5.472 1.008-2.004 0-3.828-.336-5.472-1.008-1.644-.684-3.054-1.62-4.23-2.808-1.176-1.188-2.088-2.598-2.736-4.23-.636-1.632-.954-3.402-.954-5.31 0-1.908.318-3.672.954-5.292.648-1.632 1.56-3.042 2.736-4.23 1.176-1.188 2.586-2.118 4.23-2.79C26.77.936 28.594.594 30.598.594c2.004 0 3.828.342 5.472 1.026 1.644.672 3.048 1.608 4.212 2.808 1.176 1.188 2.082 2.598 2.718 4.23.648 1.62.972 3.378.972 5.274zm-5.526 0c0-1.368-.18-2.592-.54-3.672-.36-1.092-.882-2.016-1.566-2.772a6.47 6.47 0 00-2.466-1.746c-.96-.408-2.052-.612-3.276-.612-1.224 0-2.322.204-3.294.612-.972.396-1.8.978-2.484 1.746-.672.756-1.188 1.68-1.548 2.772-.36 1.08-.54 2.304-.54 3.672 0 1.38.18 2.616.54 3.708.36 1.08.876 1.998 1.548 2.754a6.908 6.908 0 002.484 1.746c.972.396 2.07.594 3.294.594 1.224 0 2.316-.198 3.276-.594a6.739 6.739 0 002.466-1.746c.684-.756 1.206-1.674 1.566-2.754.36-1.092.54-2.328.54-3.708zm22.178-.234h8.964V24.48a14.116 14.116 0 01-4.266 2.142c-1.5.444-3.09.666-4.77.666-2.148 0-4.092-.33-5.832-.99-1.74-.672-3.228-1.602-4.464-2.79a12.278 12.278 0 01-2.862-4.23c-.672-1.632-1.008-3.414-1.008-5.346 0-1.956.318-3.75.954-5.382.648-1.632 1.566-3.036 2.754-4.212 1.188-1.176 2.622-2.094 4.302-2.754 1.692-.66 3.582-.99 5.67-.99 1.08 0 2.088.09 3.024.27.936.168 1.8.408 2.592.72.792.3 1.518.66 2.178 1.08.66.42 1.26.882 1.8 1.386l-1.566 2.412c-.24.384-.552.618-.936.702-.384.084-.804-.012-1.26-.288a15.142 15.142 0 00-1.278-.702 8.646 8.646 0 00-1.314-.558 9.227 9.227 0 00-1.53-.36 12.81 12.81 0 00-1.908-.126c-1.212 0-2.31.21-3.294.63a7.134 7.134 0 00-2.52 1.782c-.684.768-1.212 1.692-1.584 2.772-.372 1.08-.558 2.286-.558 3.618 0 1.44.204 2.73.612 3.87.408 1.128.984 2.082 1.728 2.862a7.383 7.383 0 002.664 1.782c1.044.408 2.202.612 3.474.612.864 0 1.632-.084 2.304-.252.684-.18 1.35-.42 1.998-.72v-4.392H61.74c-.348 0-.624-.09-.828-.27a.977.977 0 01-.288-.72v-3.006zm38.614.234c0 1.908-.324 3.678-.972 5.31-.636 1.632-1.542 3.042-2.718 4.23-1.164 1.188-2.568 2.124-4.212 2.808-1.644.672-3.468 1.008-5.472 1.008-2.004 0-3.828-.336-5.472-1.008-1.644-.684-3.054-1.62-4.23-2.808-1.176-1.188-2.088-2.598-2.736-4.23-.636-1.632-.954-3.402-.954-5.31 0-1.908.318-3.672.954-5.292.648-1.632 1.56-3.042 2.736-4.23 1.176-1.188 2.586-2.118 4.23-2.79C82.036.936 83.86.594 85.864.594c2.004 0 3.828.342 5.472 1.026 1.644.672 3.048 1.608 4.212 2.808 1.176 1.188 2.082 2.598 2.718 4.23.648 1.62.972 3.378.972 5.274zm-5.526 0c0-1.368-.18-2.592-.54-3.672-.36-1.092-.882-2.016-1.566-2.772a6.47 6.47 0 00-2.466-1.746c-.96-.408-2.052-.612-3.276-.612-1.224 0-2.322.204-3.294.612-.972.396-1.8.978-2.484 1.746-.672.756-1.188 1.68-1.548 2.772-.36 1.08-.54 2.304-.54 3.672 0 1.38.18 2.616.54 3.708.36 1.08.876 1.998 1.548 2.754a6.908 6.908 0 002.484 1.746c.972.396 2.07.594 3.294.594 1.224 0 2.316-.198 3.276-.594a6.739 6.739 0 002.466-1.746c.684-.756 1.206-1.674 1.566-2.754.36-1.092.54-2.328.54-3.708zm27.182-8.694h-7.632V27h-5.418V5.238h-7.632V.882h20.682v4.356zm15.048 11.718V27h-5.4V16.956L121.056.882h4.752c.468 0 .84.114 1.116.342.288.216.516.498.684.846l4.284 8.226c.288.552.546 1.068.774 1.548.24.48.45.96.63 1.44.168-.48.36-.96.576-1.44a44.8 44.8 0 01.756-1.548l4.248-8.226c.144-.288.36-.558.648-.81.288-.252.66-.378 1.116-.378h4.788l-9.486 16.074zm20.708-3.078c1.692 0 2.928-.408 3.708-1.224.792-.816 1.188-1.932 1.188-3.348a4.86 4.86 0 00-.306-1.764 3.327 3.327 0 00-.9-1.368c-.396-.384-.9-.678-1.512-.882-.612-.204-1.338-.306-2.178-.306h-3.42v8.892h3.42zm0-12.996c1.788 0 3.33.21 4.626.63 1.308.42 2.382 1.008 3.222 1.764a6.738 6.738 0 011.854 2.664c.408 1.032.612 2.154.612 3.366 0 1.284-.21 2.46-.63 3.528a7.213 7.213 0 01-1.908 2.754c-.852.768-1.926 1.368-3.222 1.8-1.296.42-2.814.63-4.554.63h-3.42V27h-5.4V.882h8.82z" fill="#F16844"/></svg>